<?xml version="1.0" encoding="UTF-8"?>
<!DOCTYPE svg PUBLIC "-//W3C//DTD SVG 1.1//EN" "http://www.w3.org/Graphics/SVG/1.1/DTD/svg11.dtd">
<!-- Creator: CorelDRAW X7 -->
<svg xmlns="http://www.w3.org/2000/svg" xml:space="preserve" width="8.5in" height="11in" version="1.1" style="shape-rendering:geometricPrecision; text-rendering:geometricPrecision; image-rendering:optimizeQuality; fill-rule:evenodd; clip-rule:evenodd"
viewBox="0 0 8500 11000"
 xmlns:xlink="http://www.w3.org/1999/xlink">
 <defs>
  <style type="text/css">
   <![CDATA[
    .fil4 {fill:#FEFEFE}
    .fil3 {fill:#00AFEF}
    .fil2 {fill:#00A859}
    .fil0 {fill:#00AFEF;fill-rule:nonzero}
    .fil1 {fill:#00A859;fill-rule:nonzero}
   ]]>
  </style>
 </defs>
 <g id="Layer_x0020_1">
  <metadata id="CorelCorpID_0Corel-Layer"/>
  <g id="_2195516896160">
   <path class="fil0" d="M1686 6736l149 0 194 285 0 -285 151 0 0 517 -151 0 -193 -284 0 284 -150 0 0 -517zm580 259c0,-84 23,-150 70,-197 47,-47 113,-71 197,-71 86,0 152,23 199,70 46,46 70,111 70,194 0,60 -11,109 -31,148 -20,39 -50,69 -88,90 -39,22 -86,33 -144,33 -58,0 -106,-10 -145,-28 -38,-19 -69,-48 -92,-88 -24,-40 -36,-91 -36,-151zm159 0c0,52 10,90 30,113 19,22 46,34 79,34 34,0 61,-11 80,-34 19,-22 28,-62 28,-120 0,-49 -10,-84 -29,-106 -20,-23 -47,-34 -80,-34 -33,0 -59,11 -78,34 -20,23 -30,61 -30,113zm442 0c0,-84 24,-150 71,-197 47,-47 112,-71 196,-71 86,0 153,23 199,70 47,46 70,111 70,194 0,60 -10,109 -30,148 -21,39 -50,69 -89,90 -38,22 -86,33 -143,33 -59,0 -107,-10 -145,-28 -38,-19 -69,-48 -93,-88 -24,-40 -36,-91 -36,-151zm160 0c0,52 10,90 29,113 19,22 46,34 79,34 35,0 61,-11 80,-34 19,-22 28,-62 28,-120 0,-49 -9,-84 -29,-106 -20,-23 -46,-34 -80,-34 -32,0 -58,11 -78,34 -19,23 -29,61 -29,113zm380 -259l167 0 117 372 114 -372 162 0 -191 517 -173 0 -196 -517zm889 432l-181 0 -26 85 -163 0 195 -517 174 0 194 517 -167 0 -26 -85zm-34 -112l-56 -186 -57 186 113 0z"/>
   <path class="fil1" d="M4493 6736l151 0 55 288 80 -288 150 0 80 289 55 -289 151 0 -114 517 -156 0 -91 -326 -90 326 -157 0 -114 -517zm1092 432l-181 0 -26 85 -163 0 195 -517 175 0 193 517 -167 0 -26 -85zm-34 -112l-56 -186 -57 186 113 0zm192 -320l486 0 0 128 -163 0 0 389 -160 0 0 -389 -163 0 0 -128zm521 0l486 0 0 128 -163 0 0 389 -160 0 0 -389 -163 0 0 -128z"/>
  </g>
  <g id="_2195516892960">
   <path class="fil2" d="M4329 5789c-28,-59 -53,-100 -53,-179 0,-37 7,-70 18,-101 37,-109 62,-36 -11,-147 -16,-24 -32,-45 -47,-67 -34,-48 -59,-86 -92,-134l-1244 -1792c-29,-42 -33,-62 -50,-45 -16,15 86,149 95,162 38,55 69,104 108,162 35,53 67,102 107,161l320 483c33,52 199,289 209,327l-37 22c-21,-22 -53,-69 -74,-100 -25,-37 -44,-62 -69,-99 -49,-73 -88,-130 -138,-197 -95,-130 -183,-266 -278,-399l-417 -595c-23,-32 -47,-69 -68,-99 -12,-18 -48,-79 -66,-84 -11,-3 -7,-1 -13,1l157 250c54,80 109,162 167,247l329 496c107,166 229,336 331,496 26,40 323,468 329,496l-40 28c-16,-33 -52,-83 -75,-115 -31,-44 -52,-74 -80,-112 -57,-78 -104,-151 -154,-223 -100,-142 -215,-302 -314,-447 -52,-78 -104,-150 -157,-226 -48,-70 -99,-147 -154,-223l-233 -336c-41,-57 -64,-116 -85,-90 -5,14 -7,4 6,25 5,8 9,13 15,22l329 491c37,53 83,124 119,180l179 270c13,20 55,69 49,94 -9,45 -46,67 -13,109 24,30 42,53 67,83l1185 1507c92,-242 331,-1046 -157,-302z"/>
   <path class="fil3" d="M2704 6218c76,0 157,1 216,-34 47,-28 88,-76 93,-146 11,-145 1,-331 1,-482 1,-161 1,-323 1,-484 0,-41 8,-84 -15,-109 -37,-38 -151,-170 -172,-184l-3 896 -57 -2 -2 -1854 -57 0 -5 2399z"/>
   <path class="fil2" d="M4158 5022c5,-119 -14,-660 5,-720l10 -3c32,-6 -19,1 11,-2 13,-1 18,0 31,1 4,158 0,322 0,480 0,80 1,160 0,240 0,35 -7,84 10,109 10,15 37,58 53,63l2 -1411c-130,-18 -269,22 -301,135 -20,72 -10,333 -10,427 0,61 -7,405 5,432 4,8 169,243 184,249z"/>
   <path class="fil3" d="M3375 4904l-16 16c-19,-6 -247,-295 -264,-316l-265 -320c1,92 -11,70 72,172 36,45 71,89 109,136 40,50 71,90 109,137 21,26 95,115 104,137 -30,19 -52,-28 -102,-91 -33,-40 -62,-76 -93,-116l-168 -203c-3,-4 -8,-10 -11,-13 -16,-16 -3,-6 -21,-16l0 238c5,26 87,108 106,130l55 64c14,14 8,12 25,15l2 -105c24,12 86,113 104,138l637 920c27,38 24,41 83,44 -7,-23 -36,-70 -51,-94l-154 -276c-33,-59 -72,-125 -90,-193 -38,-145 18,-226 13,-248l-633 -795c-19,-23 -73,-100 -96,-111 -2,80 9,71 47,118 23,27 49,59 71,90 76,104 201,252 286,361l141 181z"/>
   <path class="fil3" d="M3910 5808c102,178 148,364 312,393 87,15 132,-10 191,-38 -11,-29 -260,-346 -293,-386 -75,-92 -458,-603 -494,-623 -11,156 52,237 115,349 59,105 109,201 169,305z"/>
   <polygon class="fil3" points="2562,5724 2607,5724 2614,3623 2550,3623 "/>
   <path class="fil2" d="M4327 5813c116,-212 233,-424 349,-636 104,-213 290,-220 390,-72 69,121 139,242 209,362 -50,85 -99,170 -148,255 -79,-126 -159,-253 -239,-380 -134,250 -268,499 -402,749 -53,-93 -106,-185 -159,-278z"/>
   <path class="fil2" d="M4892 5476c-48,93 -96,187 -144,280 54,94 109,187 163,281 108,193 376,180 470,-50 209,-391 418,-782 627,-1172 -192,-18 -322,49 -405,180 -157,287 -314,574 -471,861 -80,-127 -160,-254 -240,-380z"/>
   <g>
    <path class="fil2" d="M2561 3173c-3,-3 -20,-48 -21,-54l25 -18 14 39 23 -17c1,6 0,14 0,20l-2 58 -16 -44 -23 16zm89 45c4,-7 10,-11 14,-20 9,-18 12,-41 5,-63 -6,-20 -49,-76 -64,-97 14,-9 6,-17 -2,-29l-160 114c4,5 7,12 12,14 6,2 8,0 15,-2 21,26 49,76 73,93 21,16 52,20 75,10 8,-3 6,-4 11,3 -1,4 -4,5 -6,7l11 17c7,-5 5,-4 9,-5l3 5 -7 6 12 17 8 -5 4 5c-2,4 -2,4 -7,7 14,20 11,17 15,14 1,0 4,-2 5,-3l26 37 24 -17 -26 -37 8 -6 -12 -16c-1,1 -3,2 -5,3l-4 1 -4 -6 8 -6 -11 -16 -9 5 -4 -5c2,-4 4,-4 7,-7l-12 -16 -8 5 -4 -7z"/>
    <path class="fil4" d="M2561 3173l23 -16 16 44 2 -58c0,-6 1,-14 0,-20l-23 17 -14 -39 -25 18c1,6 18,51 21,54z"/>
    <path class="fil2" d="M2551 3036l17 -12 -27 -37c-4,-6 -12,-21 -18,-21 -3,0 -9,4 -11,7 -3,4 -1,7 2,12 12,17 25,34 37,51z"/>
    <path class="fil2" d="M2432 3043l37 52 16 -12 -36 -52c-5,-6 -8,-8 -15,-3 -8,5 -7,8 -2,15z"/>
   </g>
   <g>
    <path class="fil3" d="M2615 5902c0,4 -12,51 -15,57l-31 -1 12 -40 -29 0c2,-5 8,-11 12,-15l36 -46 -13 45 28 0zm-46 -89c-8,4 -14,4 -23,8 -18,10 -34,27 -41,48 -7,20 -5,91 -5,117 -16,-1 -15,10 -15,25l196 1c0,-6 1,-14 -2,-19 -3,-5 -6,-5 -13,-7 -1,-33 6,-90 -4,-118 -9,-25 -31,-46 -55,-52 -9,-2 -8,0 -8,-9 4,-3 7,-1 10,-2l0 -20c-8,0 -5,0 -9,-1l0 -6 9 -1 1 -21 -10 -1 0 -6c3,-2 4,-2 10,-1 0,-25 1,-20 -4,-21 -1,0 -5,0 -6,0l0 -45 -30 -1 0 46 -10 0 0 20c2,0 5,0 6,0l4 2 0 7 -10 0 0 20 10 1 0 6c-4,2 -5,1 -10,2l0 20 10 0 -1 8z"/>
    <path class="fil4" d="M2615 5902l-28 0 13 -45 -36 46c-4,4 -10,10 -12,15l29 0 -12 40 31 1c3,-6 15,-53 15,-57z"/>
    <path class="fil3" d="M2542 6019l-20 0 0 45c0,8 -3,24 2,28 3,2 10,2 14,1 4,-2 4,-5 4,-11 0,-21 1,-42 0,-63z"/>
    <path class="fil3" d="M2643 6083l1 -64 -21 0 0 63c0,9 1,12 10,13 9,0 10,-4 10,-12z"/>
   </g>
  </g>
  <path class="fil0" d="M1793 7419l45 0 0 177 -45 0 -50 -75c-4,-6 -7,-11 -10,-15 -2,-4 -5,-9 -7,-13 -2,-4 -5,-9 -8,-14l0 1c2,9 4,17 4,25 1,8 1,15 1,22l0 69 -44 0 0 -177 44 0 50 75c4,5 7,10 10,15 3,4 5,8 7,12 3,4 5,9 8,15l1 -2c-2,-7 -4,-15 -5,-22 0,-8 -1,-15 -1,-22l0 -71zm78 177l0 -177 132 0 0 36 -87 0 0 34 75 0 0 36 -75 0 0 34 87 0 0 37 -132 0zm335 -177l46 0 -38 177 -54 0c-6,-20 -11,-40 -15,-59 -4,-19 -8,-39 -12,-61l0 0c-5,22 -9,42 -13,61 -4,19 -9,39 -14,59l-55 0 -37 -177 45 0c3,13 6,26 8,38 2,13 4,25 6,38 3,13 5,27 7,42l1 0c2,-15 5,-29 8,-42 2,-13 5,-25 8,-38 3,-12 6,-25 9,-38l54 0c4,20 8,39 13,59 4,20 8,40 12,59l1 0c3,-19 7,-39 10,-59 3,-20 7,-39 10,-59zm152 177l0 -177 131 0 0 36 -86 0 0 34 75 0 0 36 -75 0 0 34 86 0 0 37 -131 0zm268 -177l45 0 0 177 -45 0 -50 -75c-4,-6 -7,-11 -10,-15 -2,-4 -5,-9 -7,-13 -2,-4 -5,-9 -7,-14l-1 1c2,9 4,17 4,25 1,8 1,15 1,22l0 69 -44 0 0 -177 44 0 50 75c4,5 7,10 10,15 3,4 5,8 7,12 3,4 5,9 8,15l1 -2c-2,-7 -4,-15 -4,-22 -1,-8 -2,-15 -2,-22l0 -71zm78 177l0 -177 132 0 0 36 -87 0 0 34 75 0 0 36 -75 0 0 34 87 0 0 37 -132 0zm199 0l-45 0 0 -177 84 0c23,0 39,5 49,15 10,10 15,24 15,44 0,14 -4,27 -11,37 -7,10 -17,17 -29,19l0 1c5,3 10,8 16,15 5,7 11,15 16,23 6,8 11,15 15,22l0 1 -52 0 -30 -45c-3,-4 -5,-7 -7,-8 -1,-2 -3,-3 -5,-3 -2,-1 -6,-1 -10,-1l-6 0 0 57zm32 -141l-32 0 0 48 32 0c9,0 16,-2 20,-6 3,-4 5,-10 5,-18 0,-9 -2,-15 -5,-18 -4,-4 -11,-6 -20,-6zm216 88c0,-6 1,-11 1,-16l0 -1c-6,1 -11,1 -17,1 -7,1 -12,1 -17,0l0 -36 72 0 0 95c-8,4 -18,7 -29,9 -11,2 -24,3 -41,3 -23,0 -40,-3 -53,-9 -12,-6 -21,-16 -27,-29 -5,-14 -7,-32 -7,-54 0,-19 2,-34 6,-45 4,-12 10,-21 18,-28 8,-6 18,-10 30,-13 12,-2 25,-4 40,-4 9,0 18,1 27,1 9,1 18,3 27,5l0 36 -1 1c-7,-2 -15,-3 -23,-4 -8,-1 -15,-1 -23,-1 -12,0 -21,1 -30,4 -8,2 -15,7 -20,14 -4,7 -7,18 -7,34 0,15 2,26 4,34 3,8 7,14 14,16 7,3 17,5 30,5 2,0 5,0 8,0 4,0 7,-1 11,-1 3,0 6,0 7,-1l0 -16zm111 53l0 -55 -58 -121 0 -1 49 0c6,15 11,27 14,36 4,9 6,16 8,21 2,5 4,9 5,13 1,3 2,6 4,10l1 0c1,-4 2,-7 3,-10 1,-4 3,-8 5,-13 2,-5 5,-12 8,-21 3,-9 8,-21 14,-36l49 0 0 1 -58 121 0 55 -44 0zm355 -177l0 104c0,18 -2,33 -6,44 -5,11 -12,19 -23,24 -11,5 -26,7 -46,7 -20,0 -36,-2 -47,-7 -12,-5 -20,-13 -24,-24 -4,-11 -7,-26 -7,-44l0 -104 45 0 0 103c0,10 1,17 3,23 2,5 5,9 10,11 5,2 11,3 20,3 8,0 15,-1 19,-3 4,-2 7,-6 9,-11 2,-6 3,-13 3,-23l0 -103 44 0zm148 0l45 0 0 177 -44 0 -51 -75c-3,-6 -7,-11 -9,-15 -3,-4 -5,-9 -8,-13 -2,-4 -4,-9 -7,-14l-1 1c3,9 4,17 5,25 0,8 1,15 1,22l0 69 -45 0 0 -177 44 0 51 75c3,5 7,10 9,15 3,4 5,8 8,12 2,4 4,9 7,15l1 -2c-2,-7 -3,-15 -4,-22 -1,-8 -2,-15 -2,-22l0 -71zm207 139l0 38 -128 0 0 -177 44 0 0 139 84 0zm64 38l-44 0 0 -177 44 0 0 177zm115 -9c-3,-10 -7,-21 -10,-32 -3,-12 -6,-23 -10,-34 -3,-11 -6,-22 -8,-32 -3,-9 -5,-18 -7,-25 -2,-7 -3,-12 -4,-15l-1 1c1,3 1,7 1,13 1,5 1,11 1,17 0,6 1,12 1,17l0 99 -43 0 0 -177 75 0c2,10 5,20 8,31 3,11 6,22 9,32 2,11 5,21 7,31 2,9 4,18 5,25l1 0c0,-7 2,-16 4,-25 2,-10 5,-20 8,-30 2,-11 5,-22 8,-33 3,-11 6,-21 8,-31l74 0 0 177 -42 0 0 -99c0,-5 0,-11 0,-17 0,-6 1,-12 1,-17 1,-6 1,-10 1,-13l-1 -1c0,3 -2,8 -4,15 -1,7 -4,16 -6,26 -3,9 -6,20 -9,31 -3,11 -7,22 -10,34 -3,11 -6,22 -9,32l-48 0zm206 9l-45 0 0 -177 45 0 0 177zm70 0l0 -139 -50 0 0 -38 145 0 0 38 -50 0 0 139 -45 0zm115 0l0 -177 131 0 0 36 -87 0 0 34 75 0 0 36 -75 0 0 34 87 0 0 37 -131 0zm153 0l0 -177 78 0c15,0 28,1 38,4 11,2 19,7 26,13 6,6 10,15 13,26 3,12 4,26 4,44 0,18 -1,33 -4,45 -3,12 -7,21 -13,27 -7,7 -15,11 -26,14 -10,2 -23,4 -38,4l-78 0zm71 -139l-26 0 0 101 26 0c11,0 19,-1 26,-4 6,-2 10,-7 13,-14 3,-8 4,-19 4,-34 0,-15 -1,-25 -4,-32 -3,-7 -7,-12 -13,-14 -7,-2 -15,-3 -26,-3zm245 139l-45 0 0 -177 79 0c18,0 32,2 42,6 11,5 19,11 23,21 5,10 7,23 7,40 0,15 -2,28 -7,38 -4,9 -12,17 -23,21 -10,5 -24,7 -42,7l-34 0 0 44zm27 -141l-27 0 0 61 27 0c13,0 22,-2 26,-7 5,-4 7,-12 7,-23 0,-11 -2,-19 -7,-23 -4,-5 -13,-8 -26,-8zm97 52c0,-22 3,-40 8,-54 5,-13 14,-22 27,-28 12,-6 30,-9 52,-9 17,0 31,2 43,5 11,3 20,8 26,15 7,7 11,17 14,28 3,12 4,26 4,43 0,17 -1,31 -4,43 -3,12 -7,21 -14,28 -6,7 -15,12 -26,15 -12,4 -26,5 -43,5 -17,0 -31,-1 -42,-5 -11,-3 -20,-8 -26,-15 -7,-7 -12,-16 -14,-28 -3,-12 -5,-26 -5,-43zm87 52c12,0 21,-1 27,-4 6,-3 10,-9 12,-16 2,-8 3,-18 3,-32 0,-13 -1,-24 -3,-31 -2,-8 -6,-13 -12,-16 -6,-3 -15,-5 -27,-5 -11,0 -20,2 -26,5 -6,3 -10,8 -13,16 -2,7 -3,18 -3,31 0,14 1,24 3,32 3,7 7,13 13,16 6,3 15,4 26,4zm110 -9c9,3 18,5 27,7 10,1 20,2 30,2 13,0 23,-1 29,-2 6,-1 11,-3 13,-5 2,-3 3,-6 3,-11 0,-3 -1,-6 -2,-8 -2,-2 -5,-4 -9,-5 -4,-1 -11,-2 -19,-3l-19 -1c-13,-2 -24,-5 -32,-9 -8,-5 -14,-11 -17,-18 -3,-8 -5,-17 -5,-27 0,-13 3,-23 8,-31 5,-8 13,-14 25,-17 12,-4 27,-6 46,-6 25,0 46,4 62,10l-1 38 -1 1c-18,-6 -38,-10 -58,-10 -9,0 -17,1 -22,2 -5,1 -9,3 -11,5 -2,2 -3,5 -3,9 0,4 1,8 2,10 1,2 4,3 9,4 4,1 10,2 18,3l18 2c15,2 26,5 34,9 8,4 14,10 17,17 3,7 5,16 5,26 0,13 -3,23 -8,31 -6,9 -14,15 -26,19 -12,4 -28,6 -48,6 -13,0 -25,-1 -35,-2 -11,-1 -21,-3 -31,-6l0 -39 1 -1zm170 0c8,3 17,5 27,7 10,1 19,2 29,2 13,0 23,-1 30,-2 6,-1 10,-3 12,-5 2,-3 3,-6 3,-11 0,-3 0,-6 -2,-8 -1,-2 -4,-4 -8,-5 -5,-1 -11,-2 -19,-3l-19 -1c-14,-2 -25,-5 -32,-9 -8,-5 -14,-11 -17,-18 -3,-8 -5,-17 -5,-27 0,-13 2,-23 8,-31 5,-8 13,-14 25,-17 11,-4 26,-6 46,-6 25,0 45,4 61,10l0 38 -1 1c-19,-6 -38,-10 -58,-10 -10,0 -17,1 -22,2 -6,1 -9,3 -11,5 -2,2 -3,5 -3,9 0,4 0,8 2,10 1,2 4,3 8,4 4,1 11,2 19,3l18 2c14,2 26,5 34,9 8,4 13,10 16,17 4,7 5,16 5,26 0,13 -3,23 -8,31 -5,9 -14,15 -26,19 -12,4 -28,6 -47,6 -14,0 -25,-1 -36,-2 -10,-1 -20,-3 -30,-6l0 -39 1 -1zm219 46l-45 0 0 -177 45 0 0 177zm183 -46c0,15 -5,27 -14,34 -9,8 -25,12 -49,12l-87 0 0 -177 11 0 0 0 74 0c15,0 27,1 36,5 8,3 15,8 18,14 4,6 5,14 5,24 0,13 -3,23 -9,30 -6,7 -18,12 -35,13l0 1c13,1 23,3 30,6 7,4 12,8 15,14 3,7 5,15 5,24zm-78 -96l-27 0 0 35 27 0c9,0 16,-2 20,-4 4,-2 6,-7 6,-14 0,-6 -2,-11 -6,-13 -4,-3 -11,-4 -20,-4zm6 71l-33 0 0 36 33 0c9,0 16,-2 20,-4 4,-3 6,-7 6,-14 0,-7 -2,-12 -6,-14 -4,-3 -11,-4 -20,-4zm142 71l-45 0 0 -177 45 0 0 177zm162 -38l0 38 -129 0 0 -177 45 0 0 139 84 0zm64 38l-45 0 0 -177 45 0 0 177zm70 0l0 -139 -50 0 0 -38 145 0 0 38 -50 0 0 139 -45 0zm159 0l-44 0 0 -177 44 0 0 177zm34 0l0 -177 131 0 0 36 -87 0 0 34 76 0 0 36 -76 0 0 34 87 0 0 37 -131 0zm149 -46c8,3 17,5 27,7 10,1 19,2 29,2 13,0 23,-1 30,-2 6,-1 10,-3 12,-5 2,-3 3,-6 3,-11 0,-3 0,-6 -2,-8 -1,-2 -4,-4 -9,-5 -4,-1 -10,-2 -19,-3l-18 -1c-14,-2 -25,-5 -33,-9 -7,-5 -13,-11 -16,-18 -4,-8 -5,-17 -5,-27 0,-13 2,-23 8,-31 5,-8 13,-14 25,-17 11,-4 26,-6 46,-6 25,0 45,4 61,10l0 38 -1 1c-19,-6 -38,-10 -58,-10 -10,0 -17,1 -22,2 -6,1 -9,3 -11,5 -2,2 -3,5 -3,9 0,4 0,8 2,10 1,2 4,3 8,4 4,1 11,2 19,3l17 2c15,2 27,5 35,9 8,4 13,10 16,17 4,7 5,16 5,26 0,13 -3,23 -8,31 -5,9 -14,15 -26,19 -12,4 -28,6 -48,6 -13,0 -24,-1 -35,-2 -10,-1 -20,-3 -30,-6l0 -39 1 -1z"/>
 </g>
</svg>
