<?xml version="1.0" encoding="UTF-8"?>
<!DOCTYPE svg PUBLIC "-//W3C//DTD SVG 1.1//EN" "http://www.w3.org/Graphics/SVG/1.1/DTD/svg11.dtd">
<!-- Creator: CorelDRAW X7 -->
<svg xmlns="http://www.w3.org/2000/svg" xml:space="preserve" width="0.434969in" height="0.0676378in" version="1.1" style="shape-rendering:geometricPrecision; text-rendering:geometricPrecision; image-rendering:optimizeQuality; fill-rule:evenodd; clip-rule:evenodd"
viewBox="0 0 65 10"
 xmlns:xlink="http://www.w3.org/1999/xlink">
 <defs>
  <style type="text/css">
   <![CDATA[
    .fil2 {fill:#FEFEFE}
    .fil1 {fill:#00AFEF}
    .fil0 {fill:#00A859}
    .fil3 {fill:#00AFEF;fill-rule:nonzero}
    .fil4 {fill:#00A859;fill-rule:nonzero}
   ]]>
  </style>
      <clipPath id="id0">
       <path d="M0 10l15 0 0 -1 -15 0 0 1z"/>
      </clipPath>
 </defs>
 <g id="Layer_x0020_1">
  <metadata id="CorelCorpID_0Corel-Layer"/>
  <g id="_2575068731952">
   <g>
    <g>
     <g style="clip-path:url(#id0)">
      <image x="0" y="9" width="15.4992" height="1.2731" xlink:href="nw logo_Images\nw logo_ImgID1.png"/>
     </g>
    </g>
    <g>
     <path class="fil0" d="M8 8c0,0 0,0 0,-1 0,0 0,0 0,0 0,0 0,0 0,0 0,0 0,0 0,0 0,-1 0,-1 0,-1l-4 -5c0,0 0,0 0,0 0,0 0,0 0,0 0,1 0,1 1,1 0,0 0,0 0,0l1 2c0,0 0,1 0,1l0 0c0,0 0,-1 0,-1 0,0 0,0 0,0 0,0 0,0 -1,0 0,-1 0,-1 0,-2l-1 -1c-1,0 -1,0 -1,0 0,-1 0,-1 0,-1 0,0 0,0 0,0l1 1c0,0 0,0 0,1l1 1c0,1 1,1 1,1 0,1 1,2 1,2l0 0c0,0 0,0 -1,0 0,-1 0,-1 0,-1 0,0 0,0 0,0 0,-1 -1,-1 -1,-2 0,0 0,0 0,0 -1,0 -1,-1 -1,-1l-1 -1c0,0 0,0 0,0 0,0 0,0 0,0 0,0 0,0 0,0l1 1c0,1 0,1 1,1l0 1c0,0 0,0 0,0 0,0 0,0 0,0 0,0 0,0 0,1l4 4c0,-1 1,-3 -1,-1z"/>
     <path class="fil1" d="M4 9c0,0 0,0 0,0 0,0 0,0 0,0 1,-1 0,-1 0,-2 0,0 0,-1 0,-1 0,0 1,0 0,0 0,-1 0,-1 0,-1l0 3 0 0 0 -6 0 0 0 7z"/>
     <path class="fil0" d="M8 6c0,-1 0,-2 0,-2l0 0c0,0 0,0 0,0 0,0 0,0 0,0 0,0 0,1 0,1 0,0 0,1 0,1 0,0 0,0 0,0 0,0 0,0 0,0l0 -4c0,0 -1,0 -1,1 0,0 0,1 0,1 0,0 0,1 0,1 0,0 1,1 1,1z"/>
     <path class="fil1" d="M6 5l-1 0c0,0 0,0 0,0l-1 -1c0,0 0,0 0,0 0,0 0,0 0,1 1,0 1,0 1,0 0,0 0,0 0,0 0,0 0,0 0,0 0,0 0,0 0,0l-1 -1c0,0 0,0 0,0 0,0 0,0 0,0l0 1c0,0 0,0 0,0l0 0c0,0 0,0 0,0l1 0c0,0 0,0 0,0l2 3c0,0 0,0 0,0 0,0 0,0 0,0l-1 -1c0,0 0,0 0,0 0,-1 0,-1 0,-1l-2 -2c0,0 0,-1 0,-1 0,1 0,1 0,1 0,0 0,0 0,0 1,0 1,1 1,1l1 0z"/>
     <path class="fil1" d="M7 8c0,0 0,1 1,1 0,0 0,0 0,0 0,0 0,-1 0,-1 -1,0 -2,-2 -2,-2 0,1 0,1 1,1 0,0 0,1 0,1z"/>
     <polygon class="fil1" points="3,8 3,8 3,2 3,2 "/>
     <path class="fil0" d="M8 8c0,-1 1,-1 1,-2 0,0 1,0 1,0 0,0 1,1 1,1 0,0 0,0 -1,1 0,-1 0,-1 0,-1 -1,0 -1,1 -1,2 -1,-1 -1,-1 -1,-1z"/>
     <path class="fil0" d="M10 7c0,0 -1,1 -1,1 0,0 1,0 1,1 0,0 1,0 1,-1 1,-1 1,-2 2,-3 -1,0 -1,0 -1,1 -1,0 -1,1 -2,2 0,0 0,-1 0,-1z"/>
     <g>
      <path class="fil0" d="M3 1c0,0 0,-1 0,-1l0 0 0 0 0 0c0,0 0,0 0,0l0 1 0 0 0 0zm0 0c0,0 1,0 1,0 0,0 0,0 0,-1 0,0 -1,0 -1,0 0,0 0,0 0,0l0 0c0,0 0,0 0,0 0,0 0,0 0,0 0,1 0,1 0,1 0,0 0,0 0,0 0,0 0,0 0,0 0,0 0,0 0,0l0 0c0,0 0,0 0,0l0 0 0 0 0 0 1 0 0 0c0,0 0,0 -1,0 1,0 1,0 1,0 0,0 0,0 0,0l0 0 0 0 0 0 0 0 0 0c0,0 0,0 0,0l0 0 0 0 0 0 0 0 0 0 0 0c0,0 0,0 0,0l0 0 -1 0 0 0z"/>
      <path class="fil2" d="M3 1l0 0 0 0 0 -1c0,0 0,0 0,0l0 0 0 0 0 0c0,0 0,1 0,1z"/>
      <path class="fil0" d="M3 0l0 0 0 0c0,0 0,0 0,0 0,0 0,0 0,0 0,0 0,0 0,0 0,0 0,0 0,0z"/>
      <path class="fil0" d="M3 0l0 0 0 0 0 0c0,0 0,0 0,0 0,0 0,0 0,0z"/>
     </g>
     <g>
      <path class="fil1" d="M3 8c0,0 0,0 0,0l0 0 0 0 0 0c0,0 0,0 0,0l0 0 0 0 0 0zm0 0c0,0 0,0 0,0 0,0 0,0 0,0 0,0 0,0 0,0 0,0 0,0 0,0l1 1c0,-1 0,-1 0,-1 0,0 0,0 0,0 0,0 0,0 0,0 -1,0 -1,0 -1,0 0,0 0,0 0,0 0,0 0,0 0,0l0 0c0,0 0,0 0,0l0 0 0 0 0 0 0 0 0 0c0,0 0,0 0,0 0,0 0,0 0,0 0,0 0,0 0,0l0 0 0 0 0 0 0 0 0 0c0,0 0,0 0,0l0 0 0 0 0 0 0 0 0 0 0 0c0,0 0,0 0,0l0 0 0 0 0 0z"/>
      <path class="fil2" d="M3 8l0 0 0 0 0 0c0,0 0,0 0,0l0 0 0 0 0 0c0,0 0,0 0,0z"/>
      <path class="fil1" d="M3 9l0 0 0 0c0,0 0,0 0,0 0,0 0,0 0,0 0,0 0,0 0,0 0,0 0,0 0,0z"/>
      <path class="fil1" d="M3 9l0 0 0 0 0 0c0,0 0,0 0,0 0,0 0,0 0,0z"/>
     </g>
    </g>
   </g>
   <g>
    <g>
     <path class="fil3" d="M16 1l2 0 2 3 0 -3 1 0 0 5 -1 0 -2 -3 0 3 -2 0 0 -5zm6 2c0,0 0,-1 1,-2 0,0 1,0 1,0 1,0 2,0 2,0 1,1 1,2 1,2 0,1 0,1 0,2 0,0 -1,0 -1,1 0,0 -1,0 -1,0 -1,0 -1,0 -2,0 0,-1 -1,-1 -1,-1 0,-1 0,-1 0,-2zm1 0c0,1 1,1 1,1 0,1 0,1 0,1 1,0 1,0 1,-1 0,0 1,0 1,-1 0,0 -1,0 -1,-1 0,0 0,0 -1,0 0,0 0,0 0,0 0,1 -1,1 -1,1zm5 0c0,0 0,-1 0,-2 1,0 1,0 2,0 1,0 2,0 2,0 1,1 1,2 1,2 0,1 0,1 0,2 -1,0 -1,0 -1,1 -1,0 -1,0 -2,0 0,0 -1,0 -1,0 0,-1 -1,-1 -1,-1 0,-1 0,-1 0,-2zm1 0c0,1 0,1 1,1 0,1 0,1 0,1 1,0 1,0 1,-1 0,0 0,0 0,-1 0,0 0,0 0,-1 0,0 0,0 -1,0 0,0 0,0 0,0 -1,1 -1,1 -1,1zm4 -2l1 0 2 3 1 -3 1 0 -2 5 -1 0 -2 -5zm8 4l-1 0 -1 1 -1 0 2 -5 1 0 2 5 -1 0 -1 -1zm0 -1l0 -2 -1 2 1 0z"/>
     <path class="fil4" d="M43 1l2 0 0 3 1 -3 2 0 0 3 1 -3 1 0 -1 5 -1 0 -1 -3 -1 3 -2 0 -1 -5zm11 4l-2 0 0 1 -2 0 2 -5 2 0 2 5 -2 0 0 -1zm-1 -1l0 -2 -1 2 1 0zm2 -3l5 0 0 1 -2 0 0 4 -1 0 0 -4 -2 0 0 -1zm5 0l5 0 0 1 -2 0 0 4 -1 0 0 -4 -2 0 0 -1z"/>
    </g>
    <path class="fil3" d="M17 7l1 0 0 2 -1 0 0 -1c0,0 0,0 0,0 0,0 0,0 0,0 0,0 0,0 0,0l0 0c0,0 0,0 0,0 0,0 0,0 0,0l0 1 -1 0 0 -2 1 0 0 1c0,0 0,0 0,0 0,0 0,0 0,0 0,0 0,1 0,1l0 0c0,-1 0,-1 0,-1 0,0 0,0 0,0l0 -1zm1 2l0 -2 1 0 0 1 0 0 0 0 0 0 0 0 0 0 0 1 0 0 0 0 -1 0zm3 -2l1 0 -1 2 0 0c0,0 0,0 0,0 0,-1 0,-1 0,-1l0 0c0,0 0,0 0,1 -1,0 -1,0 -1,0l0 0 -1 -2 1 0c0,1 0,1 0,1 0,0 0,0 0,0 0,0 0,0 0,1l0 0c0,-1 0,-1 0,-1 0,0 0,0 0,0 0,0 0,0 0,-1l1 0c0,1 0,1 0,1 0,0 0,0 0,1l0 0c0,-1 0,-1 0,-1 0,0 0,0 0,-1zm2 2l0 -2 1 0 0 1 -1 0 0 0 1 0 0 0 -1 0 0 1 1 0 0 0 -1 0zm2 -2l1 0 0 2 -1 0 0 -1c0,0 0,0 0,0 0,0 0,0 0,0 0,0 0,0 0,0l0 0c0,0 0,0 0,0 0,0 0,0 0,0l0 1 -1 0 0 -2 1 0 0 1c0,0 0,0 0,0 0,0 0,0 0,0 0,0 0,1 0,1l0 0c0,-1 0,-1 0,-1 0,0 0,0 0,0l0 -1zm1 2l0 -2 1 0 0 1 0 0 0 0 0 0 0 0 0 0 0 1 0 0 0 0 -1 0zm2 0l0 0 0 -2 0 0c1,0 1,1 1,1 0,0 0,0 0,0 0,0 0,0 0,0 0,0 0,1 0,1l0 0c0,0 0,0 0,0 0,0 0,0 0,0 0,0 0,0 0,0l0 0 0 0 -1 0c0,0 0,0 0,0 0,0 0,0 0,0 0,0 0,0 0,0l0 0 0 0zm0 -1l0 0 0 0 0 0c0,0 0,0 1,0 0,0 0,0 0,0 0,0 0,0 0,0 -1,0 -1,0 -1,0zm2 1c0,0 0,0 0,-1l0 0c0,0 0,0 0,0 0,0 0,0 0,0l0 0 1 0 0 1c0,0 0,0 0,0 -1,0 -1,0 -1,0 0,0 0,0 0,0 -1,0 -1,0 -1,0 0,0 0,0 0,-1 0,0 0,0 0,0 0,0 0,0 1,0 0,0 0,-1 0,-1 0,0 0,0 0,0 0,0 0,0 0,0 1,0 1,0 1,0l0 1 0 0c0,0 0,0 -1,0 0,0 0,0 0,0 0,0 0,0 0,0 0,0 0,0 0,0 0,0 0,0 0,0 0,0 0,1 0,1 0,0 0,0 0,0 0,0 0,0 0,0 0,0 0,0 0,0 0,0 0,0 0,0 0,0 0,0 0,0l0 0zm1 0l0 0 0 -2 0 0 0 0c0,1 1,1 1,1 0,0 0,0 0,0 0,0 0,0 0,0 0,0 0,0 0,0l0 0c0,0 0,0 0,0 0,0 0,0 0,0 0,0 0,0 0,0 0,0 0,0 0,-1l0 0 0 0 0 2 0 0 -1 0zm4 -2l0 1c0,1 0,1 0,1 0,0 0,0 0,0 0,0 -1,0 -1,0 0,0 0,0 0,0 0,0 0,0 -1,0 0,0 0,0 0,-1l0 -1 1 0 0 1c0,1 0,1 0,1 0,0 0,0 0,0 0,0 0,0 0,0 0,0 0,0 0,0 0,0 0,0 0,0 0,0 0,0 0,-1l0 -1 1 0zm1 0l1 0 0 2 -1 0 0 -1c0,0 0,0 0,0 0,0 0,0 0,0 0,0 0,0 0,0l0 0c0,0 0,0 0,0 0,0 0,0 0,0l0 1 -1 0 0 -2 1 0 0 1c0,0 0,0 0,0 0,0 0,0 0,0 0,0 0,1 0,1l0 0c0,-1 0,-1 0,-1 0,0 0,0 0,0l0 -1zm2 2l0 0 -1 0 0 -2 1 0 0 2 0 0zm1 0l-1 0 0 -2 1 0 0 2zm1 0c0,0 0,0 0,0 0,0 0,0 0,-1 0,0 0,0 0,0 0,0 0,0 0,0 0,0 0,0 0,0l0 0c0,0 0,0 0,0 0,0 0,0 0,0 0,0 0,0 0,0l0 1 -1 0 0 -2 1 0c0,1 0,1 0,1 0,0 0,0 0,0 0,0 0,0 0,0 0,0 0,1 0,1l0 0c0,0 0,-1 0,-1 0,0 0,0 0,0 0,0 0,0 0,0 0,0 1,0 1,-1l0 0 0 2 0 0 0 -1c0,0 0,0 0,0 0,0 0,0 0,0 0,0 0,0 0,0l0 0c0,0 0,0 0,0 0,0 0,0 0,0 0,0 0,0 0,0 0,1 0,1 0,1 0,0 0,0 -1,0l0 0zm2 0l0 0 0 -2 0 0 0 2zm1 0l0 -1 -1 0 0 -1 2 0 0 1 -1 0 0 1 0 0zm1 0l0 -2 1 0 0 1 -1 0 0 0 1 0 0 0 -1 0 0 1 1 0 0 0 -1 0zm1 0l0 -2 1 0c0,0 0,0 0,0 0,1 1,1 1,1 0,0 0,0 0,0 0,0 0,0 0,0 0,0 0,1 0,1 0,0 0,0 0,0 0,0 -1,0 -1,0 0,0 0,0 0,0l-1 0zm1 -1l0 0 0 1 0 0c0,0 0,0 0,0 0,0 0,0 0,0 0,0 0,-1 0,-1 0,0 0,0 0,0 0,0 0,0 0,0 0,0 0,0 0,0zm2 1l0 0 0 -2 1 0c0,0 0,0 0,1 0,0 0,0 0,0 0,0 0,0 0,0 0,0 0,0 0,0 0,1 0,1 0,1 0,0 0,0 0,0l-1 0 0 0zm1 -1l-1 0 0 0 1 0c0,0 0,0 0,0 0,0 0,0 0,0 0,0 0,0 0,0 0,0 0,0 0,0zm0 0c0,0 1,0 1,0 0,0 0,0 0,0 0,-1 0,-1 0,-1 0,0 1,0 1,0 0,1 0,1 0,1 0,0 0,0 0,0 0,0 0,0 0,0 0,0 0,1 0,1 0,0 0,0 0,0 0,0 0,0 0,0 0,0 -1,0 -1,0 0,0 0,0 0,0 0,0 0,0 0,0 0,0 0,0 0,0 0,0 -1,-1 -1,-1zm1 1c0,0 1,0 1,0 0,0 0,0 0,0 0,0 0,-1 0,-1 0,0 0,0 0,0 0,0 0,0 0,0 0,0 -1,0 -1,0 0,0 0,0 0,0 0,0 0,0 0,0 0,0 0,0 0,0 0,0 0,1 0,1 0,0 0,0 0,0 0,0 0,0 0,0zm1 0c0,0 1,0 1,0 0,0 0,0 0,0 0,0 0,0 0,0 0,0 0,0 0,0 0,0 0,0 0,0 0,0 0,0 0,0 0,0 0,0 0,0 0,-1 0,-1 0,-1l0 0c0,0 0,0 0,0 0,0 -1,0 -1,0 0,0 0,0 0,0 0,0 0,0 0,0 0,0 1,0 1,-1 0,0 0,0 0,0 0,0 1,0 1,1l0 0 0 0c0,0 -1,0 -1,0 0,0 0,0 0,0 0,0 0,0 0,0 0,0 0,0 0,0 0,0 0,0 0,0 0,0 0,0 0,0 0,0 0,0 0,0l0 0c0,0 1,0 1,0 0,0 0,0 0,0 0,0 0,1 0,1 0,0 0,0 0,0 0,0 0,0 -1,0 0,0 0,0 0,0 0,0 0,0 0,0 0,0 -1,0 -1,0l0 0 0 0zm2 0c0,0 0,0 0,0 0,0 0,0 1,0 0,0 0,0 0,0 0,0 0,0 0,0 0,0 0,0 0,0 0,0 0,0 0,0 0,0 0,0 0,0 0,-1 0,-1 0,-1l0 0c-1,0 -1,0 -1,0 0,0 0,0 0,0 0,0 0,0 0,0 0,0 0,0 0,0 0,0 0,0 0,-1 0,0 1,0 1,0 0,0 0,0 0,1l0 0 0 0c0,0 0,0 0,0 0,0 0,0 0,0 0,0 -1,0 -1,0 0,0 0,0 0,0 0,0 0,0 0,0 0,0 0,0 1,0 0,0 0,0 0,0l0 0c0,0 0,0 0,0 0,0 0,0 0,0 0,0 0,1 0,1 0,0 0,0 0,0 0,0 0,0 0,0 0,0 0,0 0,0 0,0 -1,0 -1,0 0,0 0,0 0,0l0 0 0 0zm2 0l0 0 0 -2 0 0 0 2zm2 0c0,0 0,0 0,0 0,0 0,0 -1,0l-1 0 0 -2 1 0 0 0 0 0c0,0 1,0 1,1 0,0 0,0 0,0 0,0 0,0 0,0 0,0 0,0 0,0 0,0 0,0 -1,0l0 0c1,0 1,0 1,0 0,0 0,0 0,0 0,1 0,1 0,1zm-1 -1l0 0 0 0 0 0c0,0 0,0 0,0 0,0 0,0 0,0 0,0 0,0 0,0 0,0 0,0 0,0zm0 0l0 0 0 1 0 0c0,0 0,0 0,0 0,0 0,0 0,0 0,0 0,0 0,0 0,-1 0,-1 0,-1zm2 1l-1 0 0 -2 1 0 0 2zm1 0l0 0 -1 0 0 -2 0 0 0 2 1 0zm1 0l-1 0 0 -2 1 0 0 2zm0 0l0 -1 0 0 0 -1 1 0 0 1 0 0 0 1 -1 0zm2 0l-1 0 0 -2 1 0 0 2zm0 0l0 -2 2 0 0 1 -1 0 0 0 0 0 0 0 0 0 0 1 1 0 0 0 -2 0zm2 0c0,0 0,0 0,0 0,0 0,0 0,0 0,0 0,0 1,0 0,0 0,0 0,0 0,0 0,0 0,0 0,0 0,0 0,0 0,0 0,0 0,0 0,-1 -1,-1 -1,-1l0 0c0,0 0,0 0,0 0,0 0,0 0,0 0,0 0,0 0,0 0,0 0,0 0,0 0,0 0,0 0,-1 0,0 0,0 0,0 1,0 1,0 1,1l0 0 0 0c0,0 0,0 -1,0 0,0 0,0 0,0 0,0 0,0 0,0 0,0 0,0 0,0 0,0 0,0 0,0 0,0 0,0 0,0 0,0 0,0 0,0l1 0c0,0 0,0 0,0 0,0 0,0 0,0 0,0 0,1 0,1 0,0 0,0 0,0 0,0 0,0 0,0 0,0 -1,0 -1,0 0,0 0,0 0,0 0,0 0,0 0,0l0 0 0 0z"/>
   </g>
  </g>
 </g>
</svg>
