<svg id="Layer_1" data-name="Layer 1" xmlns="http://www.w3.org/2000/svg" viewBox="0 0 29.94 4.42"><defs><style>.cls-1{fill:#00a651;}.cls-1,.cls-2,.cls-3{fill-rule:evenodd;}.cls-2{fill:#00aeef;}.cls-3{fill:#fff;}</style></defs><path class="cls-1" d="M151.47,201.66a.45.45,0,0,1-.07-.24.51.51,0,0,1,0-.13c.05-.15.08,0,0-.2l-.07-.09-.12-.18-1.67-2.41s-.05-.08-.07-.06.12.2.13.22l.14.22.15.21.43.65c0,.07.27.39.28.44l-.05,0-.1-.13-.09-.14-.19-.26c-.13-.17-.24-.36-.37-.54l-.56-.8-.09-.13a1.06,1.06,0,0,0-.09-.11h0l.21.34.23.33.44.66c.14.23.31.46.44.67a7.66,7.66,0,0,1,.44.67l-.05,0a1.3,1.3,0,0,0-.1-.15l-.11-.15-.2-.3-.43-.6-.21-.3-.2-.3-.32-.45c-.05-.08-.08-.16-.11-.13s0,0,0,0l0,0,.44.66.16.24.24.36s.07.09.07.13-.07.09,0,.14l.09.12,1.59,2C151.8,201.74,152.12,200.66,151.47,201.66Z" transform="translate(-148.92 -197.87)"/><path class="cls-2" d="M149.29,202.24a.56.56,0,0,0,.29-.05.24.24,0,0,0,.12-.19c0-.2,0-.45,0-.65v-.65a.25.25,0,0,0,0-.15c-.05-.05-.2-.22-.23-.24v1.2h-.08V199h-.08Z" transform="translate(-148.92 -197.87)"/><path class="cls-1" d="M151.24,200.63c0-.16,0-.88,0-1h.06c0,.21,0,.43,0,.65v.32c0,.05,0,.11,0,.14a.31.31,0,0,0,.07.09V199c-.17,0-.36,0-.4.19a3.45,3.45,0,0,0,0,.57c0,.08,0,.54,0,.58S151.22,200.62,151.24,200.63Z" transform="translate(-148.92 -197.87)"/><path class="cls-2" d="M150.19,200.47l0,0a5.12,5.12,0,0,1-.36-.43l-.36-.43c0,.13,0,.1.1.23l.15.19.14.18a1.1,1.1,0,0,1,.14.18s-.07,0-.13-.12l-.13-.15-.22-.28,0,0,0,0v.32a.84.84,0,0,0,.15.18l.07.08s0,0,0,0v-.14s.11.16.14.19l.85,1.23c0,.06,0,.06.11.06a.75.75,0,0,0-.07-.12l-.2-.37a.88.88,0,0,1-.12-.26.75.75,0,0,1,0-.34l-.85-1.06s-.09-.14-.12-.15,0,.09.06.16l.09.12.39.48Z" transform="translate(-148.92 -197.87)"/><path class="cls-2" d="M150.9,201.69c.14.24.2.49.42.53a.42.42,0,0,0,.26-.05s-.35-.47-.39-.52-.62-.81-.67-.84a.74.74,0,0,0,.16.47Z" transform="translate(-148.92 -197.87)"/><polygon class="cls-2" points="0.18 3.71 0.24 3.71 0.25 0.88 0.16 0.88 0.18 3.71"/><path class="cls-1" d="M151.47,201.7l.46-.86c.14-.28.39-.29.53-.09s.18.32.28.48l-.2.34-.32-.51-.54,1Z" transform="translate(-148.92 -197.87)"/><path class="cls-1" d="M152.22,201.24l-.19.38.22.38a.34.34,0,0,0,.63-.07l.84-1.58a.54.54,0,0,0-.54.25l-.63,1.15Z" transform="translate(-148.92 -197.87)"/><path class="cls-1" d="M149.09,198.15a.36.36,0,0,0,0-.07l0,0,0,.06,0,0v.11l0-.06,0,0Zm.12.06,0,0a.11.11,0,0,0,0-.08,1,1,0,0,0-.09-.13s0,0,0,0l-.21.15s0,0,0,0h0a1.27,1.27,0,0,0,.1.12.12.12,0,0,0,.1,0s0,0,0,0h0v0h0v0h0l0,0h0l0,0,0,0,0,0h0l0,0h0l0,0h0l0,0h0Z" transform="translate(-148.92 -197.87)"/><path class="cls-3" d="M149.09,198.15l0,0,0,.06v-.11l0,0,0-.06,0,0A.36.36,0,0,1,149.09,198.15Z" transform="translate(-148.92 -197.87)"/><path class="cls-1" d="M149.08,198l0,0,0,0s0,0,0,0h0s0,0,0,0Z" transform="translate(-148.92 -197.87)"/><path class="cls-1" d="M148.92,198l.05.06h0l-.05-.07s0,0,0,0A0,0,0,0,0,148.92,198Z" transform="translate(-148.92 -197.87)"/><path class="cls-2" d="M149.17,201.82l0,.07h-.05l0,0h0l0,0,.05-.07,0,.07Zm-.07-.12h0a.1.1,0,0,0,0,.06.81.81,0,0,0,0,.16s0,0,0,0h.26s0,0,0,0h0a.85.85,0,0,0,0-.16.11.11,0,0,0-.08-.07s0,0,0,0h0v0h0v0h0s0,0,0,0h0v-.06h0v.06h0v0h0v0h0v0h0Z" transform="translate(-148.92 -197.87)"/><path class="cls-3" d="M149.17,201.82h0l0-.07-.05.07,0,0h0l0,0h.05Z" transform="translate(-148.92 -197.87)"/><path class="cls-2" d="M149.07,202h0v.1h0Z" transform="translate(-148.92 -197.87)"/><path class="cls-2" d="M149.2,202.06V202h0v.09h0Z" transform="translate(-148.92 -197.87)"/><path class="cls-2" d="M155.4,198.3h.69l.9,1.32V198.3h.69v2.39H157l-.89-1.31v1.31h-.7V198.3Zm2.68,1.2a1.21,1.21,0,0,1,.33-.91,1.22,1.22,0,0,1,.91-.33,1.29,1.29,0,0,1,.92.32,1.22,1.22,0,0,1,.32.9,1.46,1.46,0,0,1-.14.68,1,1,0,0,1-.41.42,1.34,1.34,0,0,1-.66.15,1.45,1.45,0,0,1-.67-.13.94.94,0,0,1-.43-.41,1.31,1.31,0,0,1-.17-.69Zm.74,0a.88.88,0,0,0,.13.52.49.49,0,0,0,.37.16.47.47,0,0,0,.37-.16.85.85,0,0,0,.13-.55.77.77,0,0,0-.13-.5.5.5,0,0,0-.37-.15.44.44,0,0,0-.36.16.79.79,0,0,0-.14.52Zm2,0a1.21,1.21,0,0,1,.33-.91,1.22,1.22,0,0,1,.91-.33,1.27,1.27,0,0,1,.92.32,1.22,1.22,0,0,1,.32.9,1.46,1.46,0,0,1-.14.68,1,1,0,0,1-.41.42,1.34,1.34,0,0,1-.66.15,1.45,1.45,0,0,1-.67-.13.94.94,0,0,1-.43-.41,1.31,1.31,0,0,1-.17-.69Zm.74,0a.81.81,0,0,0,.14.52.47.47,0,0,0,.36.16.46.46,0,0,0,.37-.16.85.85,0,0,0,.13-.55.77.77,0,0,0-.13-.5.48.48,0,0,0-.37-.15.44.44,0,0,0-.36.16.79.79,0,0,0-.14.52Zm1.76-1.2h.77l.54,1.72.53-1.72H166l-.89,2.39h-.8l-.9-2.39Zm4.11,2,.12.39h.77l-.89-2.39h-.81l-.9,2.39h.75l.12-.39Zm-.16-.52h-.52l.26-.86Z" transform="translate(-148.92 -197.87)"/><path class="cls-1" d="M168.38,198.3h.7l.25,1.33.37-1.33h.7l.37,1.34.25-1.34h.7l-.53,2.39h-.72l-.42-1.5-.42,1.5h-.72l-.53-2.39Zm5.05,2,.12.39h.78l-.9-2.39h-.81l-.9,2.39h.76l.12-.39Zm-.15-.52h-.53l.27-.86.26.86Zm.88-1.48h2.25v.59h-.75v1.8h-.74v-1.8h-.76v-.59Zm2.41,0h2.25v.59h-.75v1.8h-.74v-1.8h-.76Z" transform="translate(-148.92 -197.87)"/><path class="cls-2" d="M155.9,201.46h.2v.82h-.2l-.24-.35a.43.43,0,0,0,0-.07l0-.06a.21.21,0,0,1,0-.06h0a.5.5,0,0,1,0,.12v.42h-.2v-.82h.2l.23.34,0,.07,0,.06,0,.07h0s0-.07,0-.1v-.43Zm.36.82v-.82h.6v.17h-.4v.15h.35V202h-.35v.16h.4v.17Zm1.55-.82H158l-.18.82h-.25c0-.1-.05-.19-.07-.27a2.5,2.5,0,0,1-.05-.29h0l-.06.29c0,.08,0,.17-.07.27h-.25l-.17-.82h.21l0,.17,0,.18,0,.2h0a1.77,1.77,0,0,0,0-.2c0-.06,0-.12,0-.18s0-.11,0-.17h.25l.06.27.06.28h0c0-.1,0-.19,0-.28a2.56,2.56,0,0,1,.05-.27Zm.7.82v-.82h.61v.17h-.41v.15h.35V202h-.35v.16h.41v.17Zm1.24-.82H160v.82h-.21l-.23-.35-.05-.07,0-.06,0-.06h0a.5.5,0,0,1,0,.12s0,.07,0,.1v.32h-.21v-.82h.2l.24.34a.43.43,0,0,0,0,.07l0,.06,0,.07h0a.36.36,0,0,0,0-.1v-.43Zm.36.82v-.82h.61v.17h-.4v.15h.34V202h-.34v.16h.4v.17Zm.92,0h-.21v-.82h.39a.32.32,0,0,1,.23.07.28.28,0,0,1,.07.2.24.24,0,0,1-.06.17.18.18,0,0,1-.13.09h0a.19.19,0,0,1,.07.06l.08.11a.86.86,0,0,0,.07.1h-.24l-.14-.21,0,0H161v.27Zm.15-.65H161v.22h.15a.12.12,0,0,0,.09,0,.19.19,0,0,0,0-.08.2.2,0,0,0,0-.09s-.05,0-.09,0Zm1,.4V202H162v-.17h.34v.44l-.14,0-.19,0a.75.75,0,0,1-.24,0,.29.29,0,0,1-.13-.14.85.85,0,0,1,0-.25.66.66,0,0,1,0-.21.25.25,0,0,1,.08-.12l.14-.07h.31l.13,0v.17h-.22l-.14,0a.15.15,0,0,0-.09.06.34.34,0,0,0,0,.16.63.63,0,0,0,0,.16.1.1,0,0,0,.07.07.28.28,0,0,0,.14,0h.12V202Zm.51.25V202l-.27-.56h.23l.06.16,0,.1,0,.06,0,.05h0l0-.05s0,0,0-.06l0-.1s0-.09.06-.16h.23l-.27.56v.26Zm1.64-.82v.48a.56.56,0,0,1,0,.2.18.18,0,0,1-.1.11.43.43,0,0,1-.22,0,.48.48,0,0,1-.22,0,.18.18,0,0,1-.1-.11.4.4,0,0,1,0-.2v-.48h.21v.48s0,.07,0,.1a.12.12,0,0,0,0,.05l.09,0,.09,0a.07.07,0,0,0,0-.05.3.3,0,0,0,0-.1v-.48Zm.69,0h.2v.82H165l-.23-.35,0-.07,0-.06,0-.06h0a.5.5,0,0,1,0,.12v.42h-.2v-.82h.2l.24.34a.43.43,0,0,0,0,.07l0,.06a.43.43,0,0,1,0,.07h0s0-.07,0-.1v-.43Zm.95.64v.18h-.59v-.82h.21v.64Zm.3.18h-.21v-.82h.21v.82Zm.53-.05s0-.09-.05-.14,0-.11,0-.16a.83.83,0,0,1,0-.15l0-.11,0-.07h0v.06a.22.22,0,0,0,0,.08v.54h-.2v-.82h.35l0,.14a.83.83,0,0,1,0,.15,1,1,0,0,1,0,.14.74.74,0,0,1,0,.12h0a1,1,0,0,0,0-.12.89.89,0,0,1,0-.14c0-.05,0-.1,0-.15s0-.1,0-.14h.34v.82h-.2v-.54a.22.22,0,0,0,0-.08v-.06h0a.41.41,0,0,1,0,.07,1,1,0,0,0,0,.12s0,.09,0,.14,0,.1-.05.16,0,.1,0,.14Zm.95.05h-.2v-.82h.2v.82Zm.33,0v-.65h-.24v-.17h.68v.17h-.24v.65Zm.53,0v-.82h.6v.17h-.4v.15h.35V202h-.35v.16h.4v.17Zm.71,0v-.82h.35a.44.44,0,0,1,.18,0,.21.21,0,0,1,.18.18.59.59,0,0,1,0,.2.68.68,0,0,1,0,.21.26.26,0,0,1-.06.13.23.23,0,0,1-.12.06l-.18,0Zm.32-.65h-.12v.47h.12a.2.2,0,0,0,.12,0,.13.13,0,0,0,.07-.06.71.71,0,0,0,0-.16.58.58,0,0,0,0-.15.13.13,0,0,0-.07-.06l-.12,0Zm1.14.65h-.21v-.82h.36a.53.53,0,0,1,.2,0,.2.2,0,0,1,.11.09.5.5,0,0,1,0,.19.4.4,0,0,1,0,.17.18.18,0,0,1-.11.1.5.5,0,0,1-.2,0h-.15v.2Zm.12-.65h-.12v.28h.12a.17.17,0,0,0,.12,0,.18.18,0,0,0,0-.11.16.16,0,0,0,0-.11.17.17,0,0,0-.12,0Zm.45.24a.76.76,0,0,1,0-.25.2.2,0,0,1,.12-.13.57.57,0,0,1,.25,0,.55.55,0,0,1,.19,0,.24.24,0,0,1,.12.07.32.32,0,0,1,.07.13,1,1,0,0,1,0,.2,1,1,0,0,1,0,.19.32.32,0,0,1-.07.13.25.25,0,0,1-.12.08l-.19,0-.2,0a.25.25,0,0,1-.12-.08.32.32,0,0,1-.07-.13,1,1,0,0,1,0-.19Zm.41.24.12,0a.09.09,0,0,0,.05-.08.46.46,0,0,0,0-.14.54.54,0,0,0,0-.15.08.08,0,0,0-.05-.07.22.22,0,0,0-.12,0,.24.24,0,0,0-.13,0,.11.11,0,0,0-.06.07.62.62,0,0,0,0,.15.53.53,0,0,0,0,.14.12.12,0,0,0,.06.08l.13,0Zm.5-.05.13,0h.27l.06,0a.07.07,0,0,0,0,0,0,0,0,0,0,0,0s0,0,0,0h-.17a.33.33,0,0,1-.15,0,.2.2,0,0,1-.08-.08.51.51,0,0,1,0-.13.29.29,0,0,1,0-.14.25.25,0,0,1,.12-.08.62.62,0,0,1,.21,0,.81.81,0,0,1,.29,0v.18h0a.77.77,0,0,0-.27,0h-.1l-.05,0s0,0,0,0,0,0,0,0,0,0,0,0l.09,0h.08a.53.53,0,0,1,.16,0,.2.2,0,0,1,.08.08.37.37,0,0,1,0,.12.21.21,0,0,1,0,.14.19.19,0,0,1-.12.09.65.65,0,0,1-.22,0h-.16l-.14,0v-.18Zm.79,0,.12,0h.27l.06,0a.08.08,0,0,0,0,0s0,0,0,0l0,0h-.18a.33.33,0,0,1-.15,0,.18.18,0,0,1-.07-.08.28.28,0,0,1,0-.13.29.29,0,0,1,0-.14.19.19,0,0,1,.11-.08.72.72,0,0,1,.22,0,.75.75,0,0,1,.28,0v.18h0a.84.84,0,0,0-.27,0h-.11l-.05,0s0,0,0,0,0,0,0,0l0,0,.09,0h.08a.53.53,0,0,1,.16,0,.18.18,0,0,1,.07.08.22.22,0,0,1,0,.12.29.29,0,0,1,0,.14.27.27,0,0,1-.12.09.69.69,0,0,1-.22,0h-.17l-.14,0v-.18Zm1,.22h-.21v-.82h.21v.82Zm.85-.21a.16.16,0,0,1-.07.15.3.3,0,0,1-.22.06h-.4v-.82h.39l.16,0a.22.22,0,0,1,.09.07.31.31,0,0,1,0,.11.21.21,0,0,1,0,.14.27.27,0,0,1-.16.06h0a.42.42,0,0,1,.13,0,.14.14,0,0,1,.08.07.27.27,0,0,1,0,.11Zm-.36-.45h-.13v.16h.13s.07,0,.09,0a.08.08,0,0,0,0-.12l-.09,0Zm0,.33h-.15v.16h.25a.12.12,0,0,0,0-.07.08.08,0,0,0,0-.06.22.22,0,0,0-.1,0Zm.66.33H175v-.82h.21v.82Zm.75-.18v.18h-.59v-.82h.2v.64Zm.3.18h-.21v-.82h.21v.82Zm.32,0v-.65h-.23v-.17H177v.17h-.23v.65Zm.74,0h-.21v-.82h.21v.82Zm.15,0v-.82h.61v.17h-.4v.15h.35V202h-.35v.16h.4v.17Zm.69-.22.13,0h.27l.06,0a.07.07,0,0,0,0,0,0,0,0,0,0,0,0l0,0h-.17a.27.27,0,0,1-.15,0,.15.15,0,0,1-.08-.08.27.27,0,0,1,0-.13.29.29,0,0,1,0-.14.21.21,0,0,1,.12-.08.62.62,0,0,1,.21,0,.81.81,0,0,1,.29,0v.18h0a.84.84,0,0,0-.27,0h-.1l0,0a.05.05,0,0,0,0,0s0,0,0,0l0,0,.09,0h.08a.53.53,0,0,1,.16,0,.2.2,0,0,1,.08.08.37.37,0,0,1,0,.12.21.21,0,0,1,0,.14.19.19,0,0,1-.12.09.65.65,0,0,1-.22,0h-.16l-.14,0v-.18Z" transform="translate(-148.92 -197.87)"/></svg>