<?xml version="1.0" encoding="utf-8"?>
<!-- Generator: Adobe Illustrator 22.1.0, SVG Export Plug-In . SVG Version: 6.00 Build 0)  -->
<svg version="1.1" id="Layer_1" xmlns="http://www.w3.org/2000/svg" xmlns:xlink="http://www.w3.org/1999/xlink" x="0px" y="0px"
	 viewBox="0 0 123 53" style="enable-background:new 0 0 123 53;" xml:space="preserve">
<style type="text/css">
	.st0{fill-rule:evenodd;clip-rule:evenodd;fill:#333333;}
	.st1{fill-rule:evenodd;clip-rule:evenodd;fill:#07A459;}
	.st2{fill-rule:evenodd;clip-rule:evenodd;fill:#F2F2F2;}
</style>
<g>
	<path class="st0" d="M-140.6,17.4c-0.5,2.6,0,5,1.3,6.7c1.1,1.5,3,3.5,5.3,3c-1.4-3.4-4.3-0.6-3.9-6.3
		c0.8-12.1,24.5-18.3,35.9-15.3c11.7,3.1,5.1,9.8,4.3,11.7l1.5,2l1.6,0.1c0.7-1.5,2-2.8,2.3-5.1c0.6-4.4-2.8-7.1-6.1-8.9
		c-4.7-2.5-9.7-3.4-14.7-3.1C-122,2.6-138.8,7.7-140.6,17.4z M-107.3,19.8c0.2,0,3.6,1.9,4.2,2.4c0,2.6-3,13.7-3,14
		c0.1,1.4,1.7,2.5,3.2,2.6c1.3-1.7,1.7-5.6,2.1-7.8c0.3-1.5,0.7-2.8,1-4.3c0.7-3.1,0-3.4,0-4.5c1.9-0.4,3.1,0.1,4.6-1
		c-0.2-1,0-0.5-0.7-1.5c0-0.1-0.1-0.2-0.2-0.2c-0.8-1.2-3.9-0.4-4.9-0.1c-4.8,1.3-4.9-2.1-6.9-1.4
		C-109.2,18.3-108.2,19.4-107.3,19.8z M-134.1,38.7c3.5-3.6,5-11.5,5.5-17.5c-1.2-0.9-1.8-1.9-3.6-2.1c-0.5,3.9,0.1,1.8-1.8,9.5
		c-2.2,7.4-2.9,6.7-3.6,7.6C-136.6,37.7-136,38.2-134.1,38.7z M-69.6,19.3l-0.7-0.3c-2.1-0.1-2.4,2.8-2.9,6
		c-4.8-1.1-6.8,3.3-6.8,5.5c0,3.5,4,6.9,6.6,6.9c-1.2-0.6-5.6-6.3-1.3-8.1c0.4,0.6,0,0,0.3,0.8c0.3,0.7,0.9,2.2,2.2,2.3
		c0.9-0.3,1.2-0.5,1.7-0.8c1.2-1.8,2-3.8,2.8-4c4.8-0.9,6.8,5.8,5,10.9c-1.9,5.5-8.6,10.6-10.8,9.1c-1.3-0.9,0.5-5.2-3.8-1.8
		c-0.4,1.6,0.3,3.6,2.6,4c4.2,0.8,12.8-5,15.4-12.7c3.2-9.6-6.6-14.6-10-10.2c0.4-1.4,0.7-1.9,1.1-3.5
		C-67.6,20.1-69.2,20.7-69.6,19.3z M-49.5,18.3c-1.3-0.1-1.1,0.2-1,0.3c1,1.6,1.4,1.2,2.7,2.4c-0.1,1.1-0.9,3.3-2.8,5.2
		c-1.3,1.3-3.5,2.9-4.4,2.3c-1-0.5,3.7-4.1,3.7-6.2c0-1.3-1.4-2.7-3.8-2.7c-1.4,0.2-1.8,0.5-2.8,0.7c-1.8,0.3-1.2-0.2-3.3-0.4
		c0.5,2.1,1.7,3.2,3.6,3.7c1.5,0.4,1,0,2.1,0.5c-0.8,2.2-2.7,2.6-3.4,5.1c1.3,3.2,3.4,4.9,6.5,2.3c1.3-1.1,2.3-2.7,3.4-3.2
		c0.3,2.5-4.6,19.8,5,22.3c1.4,0.4,2.1,0.4,2.4,0c1.2-1.4-1.4-3.3-1.8-3.1l-2,0.2c-2.8-2.3-2.1-9.9-1.3-13.7
		c0.5-2.2,3.1-11.9,3.8-12.8c2.7-0.6,9.9-0.9,12,0.2c3.8,2.1,1.4,4.9,6.9,6.9c-0.6-4.2-5.3-8.2-8.6-9.7
		C-37.3,16.2-43.9,18.4-49.5,18.3z M-82.5,35.9c0-0.1,0.1-0.4,0.1-0.3c0,0.1,0.1-0.2,0.1-0.3c0.5-3.7,1.1-6,3.1-9.6
		c0.8-1.5,1.4-1.8,1.9-3c-0.6-1.3-1.5-2-2.9-2.5c-3.2,1.6-6.4,11.3-5.7,13.5C-85.6,34.9-83.9,36.4-82.5,35.9z M-95.8,32.4
		c0.6-4,2.9-7,5.8-8C-90.2,26.3-94.1,31.9-95.8,32.4z M-88.8,22.6c-2.3-1.1-3-2.4-6.1-0.1c-2.2,1.6-7.1,9.4-3.6,12.8
		c3.6,3.4,4,0.1,6.4,0.3c-0.3,2.5-0.2,4,1.2,5.9c0.7,0.9,2.4,2.6,3.4,2.8c0.5,0.1,0.8,0.3,1.7-0.2c0.6-3.2-3.1-0.7-2.9-6.3
		C-88.3,24.8-78,19.8-86,18.2C-87.5,19.8-87.7,21.3-88.8,22.6z M-115.6,25.7c0.7-2.1,3.7-3.8,6.7-3.4c-0.1,1.8-0.4,2.1-1.6,3.3
		c-0.9,0.9-1.3,1.5-2.4,2.2c-0.6-0.4-0.2-0.1-0.7-0.5L-115.6,25.7z M-119.3,21.9c-2.8,3.3,0,6.6,4.5,6.9c-0.6,0.9,0.1,0.1-0.7,0.8
		c-4.5,4-10.6,0.9-14,2.6c-2.2,1.1,0.7,2.8,2,3.4c2.5,1.2,5.4,0.6,8-0.2c5.9-1.2,10.6,6.5,11.4,11.1c0.5,2.8,0.7,3.6,3.8,4.1
		c0.1-4.5-3.5-10.6-6.8-13.5c-1.2-1-2.8-1.6-3.9-2.8c0.8-0.8,3.3-1.9,4.3-2.6c10.4-6.5,4.3-14-3.9-12.3
		C-116.2,19.8-118.3,20.7-119.3,21.9z"/>
	<path class="st0" d="M-25.4,20.1v-2.6h0.5l0.6,1.8c0.1,0.2,0.1,0.3,0.1,0.4c0-0.1,0.1-0.2,0.1-0.4l0.6-1.8h0.5v2.6h-0.3v-2.1
		l-0.7,2.1h-0.3l-0.7-2.2v2.2H-25.4z M-27,20.1v-2.3h-0.8v-0.3h2v0.3h-0.8v2.3H-27z"/>
</g>
<path class="st1" d="M-124.3,9.9c0.6,0.1,8,0.2,7.6,5c0.3,0.2,0.8,0.6,1.5,1.1l-0.2-0.4c-2.1-1.3-0.7-4.2,0.8-5.7
	c0.3,0.4,2.7,4.6-0.5,5.9l0.2,0.4c1.8,1,4.9,2,8.6,0.6l0.1,0.3c-3.9,1.5-7,0.5-8.9-0.6l-0.5,0.2c0.5,2.9-3.1,3.6-5.4,3.4
	c0.2-0.5,2.1-5.2,5.2-3.5l0.4-0.2c-0.7-0.4-1.3-0.8-1.6-1.1C-120.8,16.8-123.3,12.9-124.3,9.9"/>
<g>
	<path class="st2" d="M3.4,17.4c-0.5,2.6,0,5,1.3,6.7c1.1,1.5,3,3.5,5.3,3c-1.4-3.4-4.3-0.6-3.9-6.3C7,8.6,30.6,2.4,42.1,5.5
		c11.7,3.1,5.1,9.8,4.3,11.7l1.5,2l1.6,0.1c0.7-1.5,2-2.8,2.3-5.1c0.6-4.4-2.8-7.1-6.1-8.9c-4.7-2.5-9.7-3.4-14.7-3.1
		C22,2.6,5.2,7.7,3.4,17.4z M36.7,19.8c0.2,0,3.6,1.9,4.2,2.4c0,2.6-3,13.7-3,14c0.1,1.4,1.7,2.5,3.2,2.6c1.3-1.7,1.7-5.6,2.1-7.8
		c0.3-1.5,0.7-2.8,1-4.3c0.7-3.1,0-3.4,0-4.5c1.9-0.4,3.1,0.1,4.6-1c-0.2-1,0-0.5-0.7-1.5c0-0.1-0.1-0.2-0.2-0.2
		c-0.8-1.2-3.9-0.4-4.9-0.1c-4.8,1.3-4.9-2.1-6.9-1.4C34.8,18.3,35.8,19.4,36.7,19.8z M9.9,38.7c3.5-3.6,5-11.5,5.5-17.5
		c-1.2-0.9-1.8-1.9-3.6-2.1c-0.5,3.9,0.1,1.8-1.8,9.5c-2.2,7.4-2.9,6.7-3.6,7.6C7.4,37.7,8,38.2,9.9,38.7z M74.4,19.3L73.7,19
		c-2.1-0.1-2.4,2.8-2.9,6c-4.8-1.1-6.8,3.3-6.8,5.5c0,3.5,4,6.9,6.6,6.9c-1.2-0.6-5.6-6.3-1.3-8.1c0.4,0.6,0,0,0.3,0.8
		c0.3,0.7,0.9,2.2,2.2,2.3c0.9-0.3,1.2-0.5,1.7-0.8c1.2-1.8,2-3.8,2.8-4c4.8-0.9,6.8,5.8,5,10.9c-1.9,5.5-8.6,10.6-10.8,9.1
		c-1.3-0.9,0.5-5.2-3.8-1.8c-0.4,1.6,0.3,3.6,2.6,4c4.2,0.8,12.8-5,15.4-12.7c3.2-9.6-6.6-14.6-10-10.2c0.4-1.4,0.7-1.9,1.1-3.5
		C76.4,20.1,74.8,20.7,74.4,19.3z M94.5,18.3c-1.3-0.1-1.1,0.2-1,0.3c1,1.6,1.4,1.2,2.7,2.4c-0.1,1.1-0.9,3.3-2.8,5.2
		c-1.3,1.3-3.5,2.9-4.4,2.3c-1-0.5,3.7-4.1,3.7-6.2c0-1.3-1.4-2.7-3.8-2.7c-1.4,0.2-1.8,0.5-2.8,0.7C84.4,20.5,85,20,83,19.8
		c0.5,2.1,1.7,3.2,3.6,3.7c1.5,0.4,1,0,2.1,0.5c-0.8,2.2-2.7,2.6-3.4,5.1c1.3,3.2,3.4,4.9,6.5,2.3c1.3-1.1,2.3-2.7,3.4-3.2
		c0.3,2.5-4.6,19.8,5,22.3c1.4,0.4,2.1,0.4,2.4,0c1.2-1.4-1.4-3.3-1.8-3.1l-2,0.2c-2.8-2.3-2.1-9.9-1.3-13.7
		c0.5-2.2,3.1-11.9,3.8-12.8c2.7-0.6,9.9-0.9,12,0.2c3.8,2.1,1.4,4.9,6.9,6.9c-0.6-4.2-5.3-8.2-8.6-9.7
		C106.7,16.2,100.1,18.4,94.5,18.3z M61.5,35.9c0-0.1,0.1-0.4,0.1-0.3c0,0.1,0.1-0.2,0.1-0.3c0.5-3.7,1.1-6,3.1-9.6
		c0.8-1.5,1.4-1.8,1.9-3c-0.6-1.3-1.5-2-2.9-2.5c-3.2,1.6-6.4,11.3-5.7,13.5C58.4,34.9,60.1,36.4,61.5,35.9z M48.2,32.4
		c0.6-4,2.9-7,5.8-8C53.8,26.3,49.9,31.9,48.2,32.4z M55.2,22.6c-2.3-1.1-3-2.4-6.1-0.1c-2.2,1.6-7.1,9.4-3.6,12.8
		c3.6,3.4,4,0.1,6.4,0.3c-0.3,2.5-0.2,4,1.2,5.9c0.7,0.9,2.4,2.6,3.4,2.8c0.5,0.1,0.8,0.3,1.7-0.2c0.6-3.2-3.1-0.7-2.9-6.3
		C55.7,24.8,66,19.8,58,18.2C56.5,19.8,56.3,21.3,55.2,22.6z M28.4,25.7c0.7-2.1,3.7-3.8,6.7-3.4c-0.1,1.8-0.4,2.1-1.6,3.3
		c-0.9,0.9-1.3,1.5-2.4,2.2c-0.6-0.4-0.2-0.1-0.7-0.5L28.4,25.7z M24.7,21.9c-2.8,3.3,0,6.6,4.5,6.9c-0.6,0.9,0.1,0.1-0.7,0.8
		c-4.5,4-10.6,0.9-14,2.6c-2.2,1.1,0.7,2.8,2,3.4c2.5,1.2,5.4,0.6,8-0.2C30.3,34.2,35,42,35.8,46.5c0.5,2.8,0.7,3.6,3.8,4.1
		c0.1-4.5-3.5-10.6-6.8-13.5c-1.2-1-2.8-1.6-3.9-2.8c0.8-0.8,3.3-1.9,4.3-2.6c10.4-6.5,4.3-14-3.9-12.3
		C27.8,19.8,25.7,20.7,24.7,21.9z"/>
	<path class="st2" d="M118.6,20.1v-2.6h0.5l0.6,1.8c0.1,0.2,0.1,0.3,0.1,0.4c0-0.1,0.1-0.2,0.1-0.4l0.6-1.8h0.5v2.6h-0.3v-2.1
		l-0.7,2.1h-0.3l-0.7-2.2v2.2H118.6z M117,20.1v-2.3h-0.8v-0.3h2v0.3h-0.8v2.3H117z"/>
</g>
<path class="st1" d="M19.7,9.9c0.6,0.1,8,0.2,7.6,5c0.3,0.2,0.8,0.6,1.5,1.1l-0.2-0.4c-2.1-1.3-0.7-4.2,0.8-5.7
	c0.3,0.4,2.7,4.6-0.5,5.9l0.2,0.4c1.8,1,4.9,2,8.6,0.6l0.1,0.3c-3.9,1.5-7,0.5-8.9-0.6l-0.5,0.2c0.5,2.9-3.1,3.6-5.4,3.4
	c0.2-0.5,2.1-5.2,5.2-3.5l0.4-0.2c-0.7-0.4-1.3-0.8-1.6-1.1C23.2,16.8,20.7,12.9,19.7,9.9"/>
</svg>
